<svg width="28" height="28" viewBox="0 0 20 20" fill="none" xmlns="http://www.w3.org/2000/svg">
<path opacity="0.4" d="M9.99983 18.3417C14.6022 18.3417 18.3332 14.6108 18.3332 10.0084C18.3332 5.40601 14.6022 1.67505 9.99983 1.67505C5.39746 1.67505 1.6665 5.40601 1.6665 10.0084C1.6665 14.6108 5.39746 18.3417 9.99983 18.3417Z" fill="#4068AF"/>
<path d="M10 5.7832C8.275 5.7832 6.875 7.1832 6.875 8.90817C6.875 10.5998 8.2 11.9748 9.95833 12.0248C9.98333 12.0248 10.0167 12.0248 10.0333 12.0248C10.05 12.0248 10.075 12.0248 10.0917 12.0248C10.1 12.0248 10.1083 12.0248 10.1083 12.0248C11.7917 11.9665 13.1167 10.5998 13.125 8.90817C13.125 7.1832 11.725 5.7832 10 5.7832Z" fill="#4068AF"/>
<path d="M15.6506 16.1333C14.1673 17.5 12.1839 18.3416 10.0006 18.3416C7.81725 18.3416 5.83392 17.5 4.35059 16.1333C4.55059 15.375 5.09225 14.6833 5.88392 14.15C8.15892 12.6333 11.8589 12.6333 14.1173 14.15C14.9173 14.6833 15.4506 15.375 15.6506 16.1333Z" fill="#4068AF"/>
</svg>
