<svg width="12" height="12" viewBox="0 0 6 6" fill="none" xmlns="http://www.w3.org/2000/svg">
<path d="M2.68758 3.31258H0.604248C0.515706 3.31258 0.441505 3.28262 0.381644 3.22269C0.321713 3.16275 0.291748 3.08852 0.291748 2.99998C0.291748 2.91137 0.321713 2.83716 0.381644 2.77737C0.441505 2.71751 0.515706 2.68758 0.604248 2.68758H2.68758V0.604248C2.68758 0.515706 2.71755 0.441505 2.77748 0.381644C2.83741 0.321713 2.91164 0.291748 3.00019 0.291748C3.0888 0.291748 3.163 0.321713 3.22279 0.381644C3.28265 0.441505 3.31258 0.515706 3.31258 0.604248V2.68758H5.39591C5.48446 2.68758 5.55866 2.71755 5.61852 2.77748C5.67845 2.83741 5.70841 2.91164 5.70841 3.00019C5.70841 3.0888 5.67845 3.163 5.61852 3.22279C5.55866 3.28265 5.48446 3.31258 5.39591 3.31258H3.31258V5.39591C3.31258 5.48446 3.28262 5.55866 3.22269 5.61852C3.16275 5.67845 3.08852 5.70841 2.99998 5.70841C2.91137 5.70841 2.83716 5.67845 2.77737 5.61852C2.71751 5.55866 2.68758 5.48446 2.68758 5.39591V3.31258Z" fill="black"/>
</svg>
