<svg width="20" height="20" viewBox="0 0 12 10" fill="none" xmlns="http://www.w3.org/2000/svg">
<path d="M3.38152 6.76279C2.66999 6.76279 2.06742 6.51602 1.57381 6.02248C1.08027 5.52887 0.833496 4.9263 0.833496 4.21477C0.833496 3.50324 1.08027 2.90067 1.57381 2.40706C2.06742 1.91352 2.66999 1.66675 3.38152 1.66675C4.09304 1.66675 4.69561 1.91352 5.18923 2.40706C5.68277 2.90067 5.92954 3.50324 5.92954 4.21477C5.92954 4.51234 5.87961 4.79654 5.77975 5.06737C5.67982 5.33821 5.54652 5.57376 5.37985 5.77404L7.77735 8.17154C7.83506 8.22918 7.86457 8.30168 7.86589 8.38904C7.86721 8.4764 7.8377 8.55026 7.77735 8.6106C7.717 8.67095 7.64381 8.70112 7.55777 8.70112C7.4718 8.70112 7.39863 8.67095 7.33829 8.6106L4.94079 6.2131C4.73246 6.38512 4.49287 6.51973 4.22204 6.61696C3.9512 6.71418 3.67103 6.76279 3.38152 6.76279ZM3.38152 6.13789C3.91839 6.13789 4.37311 5.95157 4.74568 5.57894C5.11832 5.20637 5.30464 4.75164 5.30464 4.21477C5.30464 3.67789 5.11832 3.22317 4.74568 2.8506C4.37311 2.47796 3.91839 2.29164 3.38152 2.29164C2.84464 2.29164 2.38992 2.47796 2.01735 2.8506C1.64471 3.22317 1.45839 3.67789 1.45839 4.21477C1.45839 4.75164 1.64471 5.20637 2.01735 5.57894C2.38992 5.95157 2.84464 6.13789 3.38152 6.13789Z" fill="black"/>
</svg>
