<svg width="16" height="16" viewBox="0 0 8 8" fill="none" xmlns="http://www.w3.org/2000/svg">
<path d="M3.26616 7.91667C3.16825 7.91667 3.08196 7.88458 3.00731 7.82042C2.93259 7.75618 2.88776 7.67583 2.87283 7.57937L2.74002 6.65865C2.60772 6.61378 2.4672 6.54924 2.31845 6.465C2.16963 6.38076 2.04012 6.29128 1.92991 6.19656L1.08668 6.57667C0.992516 6.61653 0.898107 6.62097 0.803454 6.59C0.708801 6.55903 0.635225 6.49931 0.582725 6.41083L0.055433 5.48396C0.002933 5.39549 -0.0122754 5.30365 0.00980795 5.20844C0.0318913 5.1133 0.0838705 5.03455 0.165746 4.97219L0.926787 4.40625C0.914287 4.33681 0.905329 4.26281 0.899912 4.18427C0.894496 4.10573 0.891787 4.03174 0.891787 3.96229C0.891787 3.89556 0.894496 3.82316 0.899912 3.7451C0.905329 3.66698 0.914287 3.58875 0.926787 3.51042L0.165746 2.94448C0.0838705 2.88212 0.032551 2.80267 0.0117871 2.70615C-0.00897675 2.60969 0.00692605 2.51719 0.0594955 2.42865L0.582725 1.51385C0.635225 1.42809 0.708801 1.36903 0.803454 1.33667C0.898107 1.30438 0.992516 1.30816 1.08668 1.34802L1.92595 1.72146C2.04415 1.62583 2.17533 1.53656 2.3195 1.45365C2.46366 1.3708 2.60252 1.30792 2.73606 1.265L2.87283 0.337292C2.88776 0.240833 2.93259 0.160486 3.00731 0.0962499C3.08196 0.0320832 3.16825 0 3.26616 0H4.31325C4.41116 0 4.49745 0.0320832 4.5721 0.0962499C4.64682 0.160486 4.69165 0.240833 4.70658 0.337292L4.83939 1.26198C4.98328 1.3149 5.12318 1.37941 5.25908 1.45552C5.39505 1.53163 5.52116 1.62028 5.63741 1.72146L6.49668 1.34802C6.59092 1.30816 6.68463 1.30438 6.77783 1.33667C6.87102 1.36903 6.94387 1.42809 6.99637 1.51385L7.52397 2.43271C7.57648 2.52118 7.59168 2.61417 7.5696 2.71167C7.54752 2.80917 7.49554 2.88677 7.41366 2.94448L6.63668 3.51125C6.65446 3.58889 6.66519 3.66542 6.66887 3.74083C6.67248 3.81618 6.67429 3.88868 6.67429 3.95833C6.67429 4.02528 6.67179 4.09576 6.66679 4.16979C6.66186 4.24375 6.65109 4.32267 6.6345 4.40656L7.3995 4.97219C7.48137 5.0299 7.53401 5.1075 7.55741 5.205C7.58088 5.3025 7.56634 5.39549 7.51377 5.48396L6.99106 6.40677C6.93675 6.49524 6.86161 6.55497 6.76564 6.58594C6.66967 6.61698 6.57547 6.61253 6.48304 6.5726L5.63741 6.1926C5.51651 6.29267 5.38804 6.38396 5.252 6.46646C5.11595 6.54903 4.97842 6.61177 4.83939 6.65469L4.70658 7.57937C4.69165 7.67583 4.64682 7.75618 4.5721 7.82042C4.49745 7.88458 4.41116 7.91667 4.31325 7.91667H3.26616ZM3.35325 7.39312H4.21866L4.36845 6.24604C4.58679 6.19049 4.78911 6.10896 4.97543 6.00146C5.16182 5.89403 5.34047 5.75705 5.51137 5.59052L6.58189 6.04969L6.99647 5.32156L6.05304 4.62073C6.08318 4.50246 6.10568 4.38965 6.12054 4.28229C6.1354 4.17493 6.14283 4.06694 6.14283 3.95833C6.14283 3.84528 6.13609 3.73639 6.12262 3.63167C6.10922 3.52694 6.08602 3.41771 6.05304 3.30396L7.0045 2.5951L6.58991 1.86698L5.50741 2.32823C5.36332 2.16885 5.18991 2.0283 4.9872 1.90656C4.7845 1.78476 4.57693 1.70611 4.3645 1.67062L4.22616 0.523542H3.35543L3.21762 1.66667C2.9929 1.71403 2.78582 1.79212 2.59637 1.90094C2.40686 2.00969 2.22897 2.15007 2.06272 2.32208L0.989495 1.86698L0.574912 2.5951L1.517 3.28979C1.48512 3.39611 1.46154 3.50483 1.44627 3.61594C1.43092 3.72705 1.42325 3.8425 1.42325 3.96229C1.42325 4.07542 1.43092 4.18618 1.44627 4.29458C1.46154 4.40306 1.4838 4.51177 1.51304 4.62073L0.574912 5.32156L0.989495 6.04969L2.05866 5.5924C2.22248 5.75941 2.39957 5.89687 2.58991 6.00479C2.78026 6.11271 2.98814 6.19444 3.21356 6.25L3.35325 7.39312ZM3.78325 5.1576C4.11679 5.1576 4.40005 5.04111 4.63304 4.80812C4.86602 4.57514 4.98252 4.29187 4.98252 3.95833C4.98252 3.62479 4.86602 3.34153 4.63304 3.10854C4.40005 2.87556 4.11679 2.75906 3.78325 2.75906C3.45012 2.75906 3.16696 2.87556 2.93377 3.10854C2.70064 3.34153 2.58408 3.62479 2.58408 3.95833C2.58408 4.29187 2.70064 4.57514 2.93377 4.80812C3.16696 5.04111 3.45012 5.1576 3.78325 5.1576Z" fill="black"/>
</svg>
